<mxfile modified="2023-04-01T11:42:55.460Z" host="app.diagrams.net" agent="Mozilla/5.0 (Windows NT 10.0; Win64; x64) AppleWebKit/537.36 (KHTML, like Gecko) Chrome/111.0.0.0 Safari/537.36" etag="zqs8vLhNBpJFVuwI25ga" version="21.1.2" type="github">
  <diagram id="f106602c-feb2-e66a-4537-3a34d633f6aa" name="Page-1">
    <mxGraphModel dx="1235" dy="674" grid="1" gridSize="10" guides="1" tooltips="1" connect="1" arrows="1" fold="1" page="1" pageScale="1" pageWidth="1169" pageHeight="827" background="none" math="0" shadow="0">
      <root>
        <mxCell id="0" />
        <mxCell id="1" parent="0" />
        <mxCell id="bed_RW8uVIO7wYIQm_9l-1007" style="edgeStyle=orthogonalEdgeStyle;rounded=0;orthogonalLoop=1;jettySize=auto;html=1;entryX=0;entryY=0.5;entryDx=0;entryDy=0;entryPerimeter=0;" edge="1" parent="1" source="bed_RW8uVIO7wYIQm_9l-1001" target="bed_RW8uVIO7wYIQm_9l-1006">
          <mxGeometry relative="1" as="geometry" />
        </mxCell>
        <mxCell id="bed_RW8uVIO7wYIQm_9l-1001" value="" style="verticalLabelPosition=bottom;html=1;verticalAlign=top;align=center;strokeColor=none;fillColor=#00BEF2;shape=mxgraph.azure.sql_database;" vertex="1" parent="1">
          <mxGeometry x="650" y="240" width="124.5" height="166" as="geometry" />
        </mxCell>
        <mxCell id="bed_RW8uVIO7wYIQm_9l-1003" style="edgeStyle=orthogonalEdgeStyle;rounded=0;orthogonalLoop=1;jettySize=auto;html=1;entryX=0;entryY=0.5;entryDx=0;entryDy=0;entryPerimeter=0;" edge="1" parent="1" source="bed_RW8uVIO7wYIQm_9l-1002" target="bed_RW8uVIO7wYIQm_9l-1001">
          <mxGeometry relative="1" as="geometry" />
        </mxCell>
        <mxCell id="bed_RW8uVIO7wYIQm_9l-1002" value="API AMOCRM" style="sketch=0;html=1;dashed=0;whitespace=wrap;fillColor=#2875E2;strokeColor=#ffffff;points=[[0.005,0.63,0],[0.1,0.2,0],[0.9,0.2,0],[0.5,0,0],[0.995,0.63,0],[0.72,0.99,0],[0.5,1,0],[0.28,0.99,0]];verticalLabelPosition=bottom;align=center;verticalAlign=top;shape=mxgraph.kubernetes.icon;prIcon=api" vertex="1" parent="1">
          <mxGeometry x="310" y="110" width="140" height="120" as="geometry" />
        </mxCell>
        <mxCell id="bed_RW8uVIO7wYIQm_9l-1005" style="edgeStyle=orthogonalEdgeStyle;rounded=0;orthogonalLoop=1;jettySize=auto;html=1;entryX=0;entryY=0.5;entryDx=0;entryDy=0;entryPerimeter=0;" edge="1" parent="1" target="bed_RW8uVIO7wYIQm_9l-1001">
          <mxGeometry relative="1" as="geometry">
            <mxPoint x="450" y="430" as="sourcePoint" />
            <Array as="points">
              <mxPoint x="550" y="430" />
              <mxPoint x="550" y="323" />
            </Array>
          </mxGeometry>
        </mxCell>
        <mxCell id="bed_RW8uVIO7wYIQm_9l-1006" value="Power BI / Tableu" style="sketch=0;points=[[0,0,0],[0.25,0,0],[0.5,0,0],[0.75,0,0],[1,0,0],[0,1,0],[0.25,1,0],[0.5,1,0],[0.75,1,0],[1,1,0],[0,0.25,0],[0,0.5,0],[0,0.75,0],[1,0.25,0],[1,0.5,0],[1,0.75,0]];outlineConnect=0;fontColor=#232F3E;gradientColor=#60A337;gradientDirection=north;fillColor=#277116;strokeColor=#ffffff;dashed=0;verticalLabelPosition=bottom;verticalAlign=top;align=center;html=1;fontSize=12;fontStyle=0;aspect=fixed;shape=mxgraph.aws4.resourceIcon;resIcon=mxgraph.aws4.cost_and_usage_report;" vertex="1" parent="1">
          <mxGeometry x="960" y="284" width="78" height="78" as="geometry" />
        </mxCell>
        <mxCell id="bed_RW8uVIO7wYIQm_9l-1008" value="API YANDEX DIRECT" style="sketch=0;html=1;dashed=0;whitespace=wrap;fillColor=#2875E2;strokeColor=#ffffff;points=[[0.005,0.63,0],[0.1,0.2,0],[0.9,0.2,0],[0.5,0,0],[0.995,0.63,0],[0.72,0.99,0],[0.5,1,0],[0.28,0.99,0]];verticalLabelPosition=bottom;align=center;verticalAlign=top;shape=mxgraph.kubernetes.icon;prIcon=api" vertex="1" parent="1">
          <mxGeometry x="310" y="362" width="140" height="120" as="geometry" />
        </mxCell>
        <mxCell id="bed_RW8uVIO7wYIQm_9l-1009" value="Parameters:Source, Campaign, GroupID,Criterion&lt;br&gt;Measures: Clicks, Impressions, Coast, &lt;br&gt;" style="text;html=1;align=center;verticalAlign=middle;resizable=0;points=[];autosize=1;strokeColor=none;fillColor=none;" vertex="1" parent="1">
          <mxGeometry x="235" y="510" width="290" height="40" as="geometry" />
        </mxCell>
        <mxCell id="bed_RW8uVIO7wYIQm_9l-1010" value="Parameters:lead_id, Ответственный, Цвета, Тип заведения, Адрес, &lt;br&gt;Дата и время, Статус, По договору или нет?, cid, utm_метки&lt;br&gt;Measures: Бюджет, Метры, Сумма за доставку, Сумма за доп. продажу" style="text;html=1;align=left;verticalAlign=middle;resizable=0;points=[];autosize=1;strokeColor=none;fillColor=none;" vertex="1" parent="1">
          <mxGeometry x="170" y="250" width="420" height="60" as="geometry" />
        </mxCell>
        <mxCell id="bed_RW8uVIO7wYIQm_9l-1011" value="ХРАНИЛИЩЕ" style="text;html=1;align=center;verticalAlign=middle;resizable=0;points=[];autosize=1;strokeColor=none;fillColor=none;" vertex="1" parent="1">
          <mxGeometry x="662.25" y="370" width="100" height="30" as="geometry" />
        </mxCell>
      </root>
    </mxGraphModel>
  </diagram>
</mxfile>
